<svg width="627" height="573" viewBox="0 0 627 573" fill="none" xmlns="http://www.w3.org/2000/svg">
<mask id="path-1-outside-1_13_9" maskUnits="userSpaceOnUse" x="6" y="10" width="582" height="553" fill="black">
<rect fill="white" x="6" y="10" width="582" height="553"/>
<path d="M184.5 29H205.5L206.5 28H262.5L263.5 29H271.5L272.5 28H319.5L320.5 29L355.5 30L356.5 31L379.5 33L398.5 37L422.5 45L463.5 65C478.833 75 493 86.1667 506 98.5C527 119.5 543.333 145.167 555 175.5L564 206.5L568 228.5V236.5L570 246.5V280.5L569 281.5L567 301.5L561 325.5L546 361.5C533.133 385.633 516.967 406.467 497.5 424C478.633 441.467 455.967 455.133 429.5 465L405.5 472L388.5 475H380.5L379.5 476H351.5C350.367 477.867 347.7 478.2 343.5 477L342 478.5V487.5L341 488.5V529.5L342 530.5V542.5L341 545H72.5L71.5 544H25V510.5L24 509.5V29.5L25.5 28H183.5L184.5 29ZM37 41L35 50V62L36 63V164L35 165V209L36 210V226L35 227V287L36 288V530L37 532L41 533H316L317 534L328 533L330 527V483L329 478L321 474L303 472L286 468L251 456C231.667 447.333 215 436.333 201 423C182.333 406.333 167.667 386 157 362L145 325L143 308L142 307V298L141 297V276L142 275L143 257L152 221L168 185C173.333 174.333 180 165 188 157C202 141.667 218 128.667 236 118C246.667 112 258.667 107 272 103L291 99L306 98L307 97H342V110L341 115V281L342 287V316L341 317V386L342 387V414L341 415V460L342 463L348 465L388 463L416 457L431 452C457 441.333 479.333 426.667 498 408C516 389.333 530.667 367.333 542 342L553 309L557 287V276L558 275V243L557 242V232L556 231L554 212L548 190C537.333 160 522.667 134.667 504 114L493 102L470 83L442 67L413 54L384 46H379L367 43L347 42L346 41H261L260 40H41L37 41ZM308 110H299L278 114L256 122L227 138L212 150L184 181L170 206L159 239L153 272V307L158 332C166 357.333 177.667 379.333 193 398C209.667 418 231 433.667 257 445L288 456L304 460L315 462H329L330 458V175L329 174V115L328 111L327 109H309L308 110Z"/>
</mask>
<path d="M184.5 29H205.5L206.5 28H262.5L263.5 29H271.5L272.5 28H319.5L320.5 29L355.5 30L356.5 31L379.5 33L398.5 37L422.5 45L463.5 65C478.833 75 493 86.1667 506 98.5C527 119.5 543.333 145.167 555 175.5L564 206.5L568 228.5V236.5L570 246.5V280.5L569 281.5L567 301.5L561 325.5L546 361.5C533.133 385.633 516.967 406.467 497.5 424C478.633 441.467 455.967 455.133 429.5 465L405.5 472L388.5 475H380.5L379.5 476H351.5C350.367 477.867 347.7 478.2 343.5 477L342 478.5V487.5L341 488.5V529.5L342 530.5V542.5L341 545H72.5L71.5 544H25V510.5L24 509.5V29.5L25.5 28H183.5L184.5 29ZM37 41L35 50V62L36 63V164L35 165V209L36 210V226L35 227V287L36 288V530L37 532L41 533H316L317 534L328 533L330 527V483L329 478L321 474L303 472L286 468L251 456C231.667 447.333 215 436.333 201 423C182.333 406.333 167.667 386 157 362L145 325L143 308L142 307V298L141 297V276L142 275L143 257L152 221L168 185C173.333 174.333 180 165 188 157C202 141.667 218 128.667 236 118C246.667 112 258.667 107 272 103L291 99L306 98L307 97H342V110L341 115V281L342 287V316L341 317V386L342 387V414L341 415V460L342 463L348 465L388 463L416 457L431 452C457 441.333 479.333 426.667 498 408C516 389.333 530.667 367.333 542 342L553 309L557 287V276L558 275V243L557 242V232L556 231L554 212L548 190C537.333 160 522.667 134.667 504 114L493 102L470 83L442 67L413 54L384 46H379L367 43L347 42L346 41H261L260 40H41L37 41ZM308 110H299L278 114L256 122L227 138L212 150L184 181L170 206L159 239L153 272V307L158 332C166 357.333 177.667 379.333 193 398C209.667 418 231 433.667 257 445L288 456L304 460L315 462H329L330 458V175L329 174V115L328 111L327 109H309L308 110Z" fill="#222222"/>
<path d="M184.5 29L171.772 41.7279L177.044 47H184.5V29ZM205.5 29V47H212.956L218.228 41.7279L205.5 29ZM206.5 28V10H199.044L193.772 15.2721L206.5 28ZM262.5 28L275.228 15.2721L269.956 10H262.5V28ZM263.5 29L250.772 41.7279L256.044 47H263.5V29ZM271.5 29V47H278.956L284.228 41.7279L271.5 29ZM272.5 28V10H265.044L259.772 15.2721L272.5 28ZM319.5 28L332.228 15.2721L326.956 10H319.5V28ZM320.5 29L307.772 41.7279L312.832 46.7883L319.986 46.9927L320.5 29ZM355.5 30L368.228 17.2721L363.168 12.2117L356.014 12.0073L355.5 30ZM356.5 31L343.772 43.7279L348.408 48.3643L354.941 48.9323L356.5 31ZM379.5 33L383.208 15.3861L382.143 15.1619L381.059 15.0677L379.5 33ZM398.5 37L404.192 19.9237L403.216 19.5982L402.208 19.3861L398.5 37ZM422.5 45L430.392 28.8222L429.322 28.3002L428.192 27.9237L422.5 45ZM463.5 65L473.333 49.923L472.396 49.3123L471.392 48.8222L463.5 65ZM506 98.5L518.728 85.7721L518.56 85.6046L518.389 85.4417L506 98.5ZM555 175.5L572.286 170.481L572.074 169.75L571.8 169.038L555 175.5ZM564 206.5L581.71 203.28L581.544 202.37L581.286 201.481L564 206.5ZM568 228.5H586V226.877L585.71 225.28L568 228.5ZM568 236.5H550V238.282L550.35 240.03L568 236.5ZM570 246.5H588V244.718L587.65 242.97L570 246.5ZM570 280.5L582.728 293.228L588 287.956V280.5H570ZM569 281.5L556.272 268.772L551.729 273.315L551.089 279.709L569 281.5ZM567 301.5L584.463 305.866L584.78 304.595L584.911 303.291L567 301.5ZM561 325.5L577.615 332.423L578.135 331.176L578.463 329.866L561 325.5ZM546 361.5L561.884 369.968L562.286 369.213L562.615 368.423L546 361.5ZM497.5 424L485.454 410.625L485.362 410.708L485.272 410.791L497.5 424ZM429.5 465L434.54 482.28L435.171 482.096L435.788 481.866L429.5 465ZM405.5 472L408.628 489.726L409.596 489.555L410.54 489.28L405.5 472ZM388.5 475V493H390.076L391.628 492.726L388.5 475ZM380.5 475V457H373.044L367.772 462.272L380.5 475ZM379.5 476V494H386.956L392.228 488.728L379.5 476ZM351.5 476V458H341.371L336.114 466.658L351.5 476ZM343.5 477L348.445 459.693L338.261 456.783L330.772 464.272L343.5 477ZM342 478.5L329.272 465.772L324 471.044V478.5H342ZM342 487.5L354.728 500.228L360 494.956V487.5H342ZM341 488.5L328.272 475.772L323 481.044V488.5H341ZM341 529.5H323V536.956L328.272 542.228L341 529.5ZM342 530.5H360V523.044L354.728 517.772L342 530.5ZM342 542.5L358.713 549.185L360 545.966V542.5H342ZM341 545V563H353.187L357.713 551.685L341 545ZM72.5 545L59.7721 557.728L65.0442 563H72.5V545ZM71.5 544L84.2279 531.272L78.9558 526H71.5V544ZM25 544H7V562H25V544ZM25 510.5H43V503.044L37.7279 497.772L25 510.5ZM24 509.5H6V516.956L11.2721 522.228L24 509.5ZM24 29.5L11.2721 16.7721L6 22.0442V29.5H24ZM25.5 28V10H18.0442L12.7721 15.2721L25.5 28ZM183.5 28L196.228 15.2721L190.956 10H183.5V28ZM37 41L32.6344 23.5374L21.8419 26.2355L19.4286 37.0953L37 41ZM35 50L17.4286 46.0953L17 48.0241V50H35ZM35 62H17V69.4558L22.2721 74.7279L35 62ZM36 63H54V55.5442L48.7279 50.2721L36 63ZM36 164L48.7279 176.728L54 171.456V164H36ZM35 165L22.2721 152.272L17 157.544V165H35ZM35 209H17V216.456L22.2721 221.728L35 209ZM36 210H54V202.544L48.7279 197.272L36 210ZM36 226L48.7279 238.728L54 233.456V226H36ZM35 227L22.2721 214.272L17 219.544V227H35ZM35 287H17V294.456L22.2721 299.728L35 287ZM36 288H54V280.544L48.7279 275.272L36 288ZM36 530H18V534.249L19.9003 538.05L36 530ZM37 532L20.9003 540.05L24.6027 547.455L32.6344 549.463L37 532ZM41 533L36.6344 550.463L38.7841 551H41V533ZM316 533L328.728 520.272L323.456 515H316V533ZM317 534L304.272 546.728L310.234 552.689L318.63 551.926L317 534ZM328 533L329.63 550.926L341.354 549.86L345.076 538.692L328 533ZM330 527L347.076 532.692L348 529.921V527H330ZM330 483H348V481.218L347.65 479.47L330 483ZM329 478L346.65 474.47L344.924 465.837L337.05 461.9L329 478ZM321 474L329.05 457.9L326.178 456.465L322.988 456.11L321 474ZM303 472L298.877 489.522L299.934 489.77L301.012 489.89L303 472ZM286 468L280.162 485.027L281.007 485.317L281.877 485.522L286 468ZM251 456L243.637 472.425L244.386 472.761L245.162 473.027L251 456ZM201 423L213.414 409.966L213.204 409.766L212.988 409.573L201 423ZM157 362L139.878 367.553L140.169 368.449L140.551 369.31L157 362ZM145 325L127.123 327.103L127.331 328.865L127.878 330.553L145 325ZM143 308L160.877 305.897L160.147 299.691L155.728 295.272L143 308ZM142 307H124V314.456L129.272 319.728L142 307ZM142 298H160V290.544L154.728 285.272L142 298ZM141 297H123V304.456L128.272 309.728L141 297ZM141 276L128.272 263.272L123 268.544V276H141ZM142 275L154.728 287.728L159.591 282.865L159.972 275.998L142 275ZM143 257L125.537 252.634L125.123 254.294L125.028 256.002L143 257ZM152 221L135.551 213.69L134.917 215.118L134.537 216.634L152 221ZM168 185L151.9 176.95L151.717 177.316L151.551 177.69L168 185ZM188 157L200.728 169.728L201.017 169.439L201.293 169.137L188 157ZM236 118L227.175 102.312L226.998 102.411L226.824 102.515L236 118ZM272 103L268.292 85.3861L267.552 85.5419L266.828 85.7591L272 103ZM291 99L289.803 81.0399L288.535 81.1244L287.292 81.3861L291 99ZM306 98L307.197 115.96L313.946 115.51L318.728 110.728L306 98ZM307 97V79H299.544L294.272 84.2721L307 97ZM342 97H360V79H342V97ZM342 110L359.65 113.53L360 111.782V110H342ZM341 115L323.35 111.47L323 113.218V115H341ZM341 281H323V282.49L323.245 283.959L341 281ZM342 287H360V285.51L359.755 284.041L342 287ZM342 316L354.728 328.728L360 323.456V316H342ZM341 317L328.272 304.272L323 309.544V317H341ZM341 386H323V393.456L328.272 398.728L341 386ZM342 387H360V379.544L354.728 374.272L342 387ZM342 414L354.728 426.728L360 421.456V414H342ZM341 415L328.272 402.272L323 407.544V415H341ZM341 460H323V462.921L323.924 465.692L341 460ZM342 463L324.924 468.692L327.77 477.23L336.308 480.076L342 463ZM348 465L342.308 482.076L345.519 483.147L348.899 482.978L348 465ZM388 463L388.899 480.978L390.35 480.905L391.772 480.6L388 463ZM416 457L419.772 474.6L420.746 474.392L421.692 474.076L416 457ZM431 452L436.692 469.076L437.269 468.884L437.832 468.653L431 452ZM498 408L510.728 420.728L510.844 420.612L510.957 420.494L498 408ZM542 342L558.431 349.351L558.795 348.537L559.076 347.692L542 342ZM553 309L570.076 314.692L570.481 313.479L570.71 312.22L553 309ZM557 287L574.71 290.22L575 288.623V287H557ZM557 276L544.272 263.272L539 268.544V276H557ZM558 275L570.728 287.728L576 282.456V275H558ZM558 243H576V235.544L570.728 230.272L558 243ZM557 242H539V249.456L544.272 254.728L557 242ZM557 232H575V224.544L569.728 219.272L557 232ZM556 231L538.099 232.884L538.766 239.222L543.272 243.728L556 231ZM554 212L571.901 210.116L571.749 208.668L571.366 207.264L554 212ZM548 190L565.366 185.264L565.187 184.609L564.96 183.97L548 190ZM504 114L517.358 101.935L517.313 101.886L517.269 101.837L504 114ZM493 102L506.269 89.837L505.426 88.9173L504.464 88.1227L493 102ZM470 83L481.464 69.1227L480.272 68.1384L478.931 67.3716L470 83ZM442 67L450.931 51.3716L450.166 50.9349L449.363 50.5748L442 67ZM413 54L420.363 37.5748L419.11 37.0132L417.787 36.6481L413 54ZM384 46L388.787 28.6481L386.437 28H384V46ZM379 46L374.634 63.4626L376.784 64H379V46ZM367 43L371.366 25.5374L369.657 25.1104L367.899 25.0225L367 43ZM347 42L334.272 54.7279L339.175 59.6313L346.101 59.9775L347 42ZM346 41L358.728 28.2721L353.456 23H346V41ZM261 41L248.272 53.7279L253.544 59H261V41ZM260 40L272.728 27.2721L267.456 22H260V40ZM41 40V22H38.7841L36.6344 22.5374L41 40ZM308 110V128H315.456L320.728 122.728L308 110ZM299 110V92H297.301L295.632 92.3179L299 110ZM278 114L274.632 96.3179L273.21 96.5889L271.849 97.0837L278 114ZM256 122L249.849 105.084L248.532 105.563L247.305 106.24L256 122ZM227 138L218.305 122.24L216.957 122.983L215.755 123.944L227 138ZM212 150L200.755 135.944L199.618 136.854L198.642 137.935L212 150ZM184 181L170.642 168.935L169.285 170.438L168.295 172.205L184 181ZM170 206L154.295 197.205L153.462 198.692L152.924 200.308L170 206ZM159 239L141.924 233.308L141.519 234.521L141.29 235.78L159 239ZM153 272L135.29 268.78L135 270.377V272H153ZM153 307H135V308.782L135.35 310.53L153 307ZM158 332L140.35 335.53L140.541 336.488L140.836 337.42L158 332ZM193 398L179.091 409.425L179.131 409.474L179.172 409.523L193 398ZM257 445L249.807 461.501L250.386 461.753L250.981 461.964L257 445ZM288 456L281.981 472.964L282.796 473.253L283.634 473.463L288 456ZM304 460L299.634 477.463L300.203 477.605L300.78 477.71L304 460ZM315 462L311.78 479.71L313.377 480H315V462ZM329 462V480H343.054L346.463 466.366L329 462ZM330 458L347.463 462.366L348 460.216V458H330ZM330 175H348V167.544L342.728 162.272L330 175ZM329 174H311V181.456L316.272 186.728L329 174ZM329 115H347V112.784L346.463 110.634L329 115ZM328 111L345.463 106.634L344.983 104.717L344.1 102.95L328 111ZM327 109L343.1 100.95L338.125 91H327V109ZM309 109V91H301.544L296.272 96.2721L309 109ZM184.5 29V47H205.5V29V11H184.5V29ZM205.5 29L218.228 41.7279L219.228 40.7279L206.5 28L193.772 15.2721L192.772 16.2721L205.5 29ZM206.5 28V46H262.5V28V10H206.5V28ZM262.5 28L249.772 40.7279L250.772 41.7279L263.5 29L276.228 16.2721L275.228 15.2721L262.5 28ZM263.5 29V47H271.5V29V11H263.5V29ZM271.5 29L284.228 41.7279L285.228 40.7279L272.5 28L259.772 15.2721L258.772 16.2721L271.5 29ZM272.5 28V46H319.5V28V10H272.5V28ZM319.5 28L306.772 40.7279L307.772 41.7279L320.5 29L333.228 16.2721L332.228 15.2721L319.5 28ZM320.5 29L319.986 46.9927L354.986 47.9927L355.5 30L356.014 12.0073L321.014 11.0073L320.5 29ZM355.5 30L342.772 42.7279L343.772 43.7279L356.5 31L369.228 18.2721L368.228 17.2721L355.5 30ZM356.5 31L354.941 48.9323L377.941 50.9323L379.5 33L381.059 15.0677L358.059 13.0677L356.5 31ZM379.5 33L375.792 50.6139L394.792 54.6139L398.5 37L402.208 19.3861L383.208 15.3861L379.5 33ZM398.5 37L392.808 54.0763L416.808 62.0763L422.5 45L428.192 27.9237L404.192 19.9237L398.5 37ZM422.5 45L414.608 61.1778L455.608 81.1778L463.5 65L471.392 48.8222L430.392 28.8222L422.5 45ZM463.5 65L453.667 80.077C468.109 89.4956 481.417 99.9897 493.611 111.558L506 98.5L518.389 85.4417C504.583 72.3436 489.558 60.5044 473.333 49.923L463.5 65ZM506 98.5L493.272 111.228C512.329 130.285 527.351 153.755 538.2 181.962L555 175.5L571.8 169.038C559.315 136.578 541.671 108.715 518.728 85.7721L506 98.5ZM555 175.5L537.714 180.519L546.714 211.519L564 206.5L581.286 201.481L572.286 170.481L555 175.5ZM564 206.5L546.29 209.72L550.29 231.72L568 228.5L585.71 225.28L581.71 203.28L564 206.5ZM568 228.5H550V236.5H568H586V228.5H568ZM568 236.5L550.35 240.03L552.35 250.03L570 246.5L587.65 242.97L585.65 232.97L568 236.5ZM570 246.5H552V280.5H570H588V246.5H570ZM570 280.5L557.272 267.772L556.272 268.772L569 281.5L581.728 294.228L582.728 293.228L570 280.5ZM569 281.5L551.089 279.709L549.089 299.709L567 301.5L584.911 303.291L586.911 283.291L569 281.5ZM567 301.5L549.537 297.134L543.537 321.134L561 325.5L578.463 329.866L584.463 305.866L567 301.5ZM561 325.5L544.385 318.577L529.385 354.577L546 361.5L562.615 368.423L577.615 332.423L561 325.5ZM546 361.5L530.116 353.032C518.19 375.401 503.298 394.553 485.454 410.625L497.5 424L509.546 437.375C530.635 418.38 548.076 395.866 561.884 369.968L546 361.5ZM497.5 424L485.272 410.791C468.29 426.513 447.697 439.006 423.212 448.134L429.5 465L435.788 481.866C464.236 471.261 488.976 456.421 509.728 437.209L497.5 424ZM429.5 465L424.46 447.72L400.46 454.72L405.5 472L410.54 489.28L434.54 482.28L429.5 465ZM405.5 472L402.372 454.274L385.372 457.274L388.5 475L391.628 492.726L408.628 489.726L405.5 472ZM388.5 475V457H380.5V475V493H388.5V475ZM380.5 475L367.772 462.272L366.772 463.272L379.5 476L392.228 488.728L393.228 487.728L380.5 475ZM379.5 476V458H351.5V476V494H379.5V476ZM351.5 476L336.114 466.658C337.405 464.531 339.222 462.763 341.344 461.535C343.367 460.364 345.214 459.939 346.417 459.789C348.529 459.525 349.494 459.992 348.445 459.693L343.5 477L338.555 494.307C341.706 495.208 346.104 496.108 350.883 495.511C356.282 494.836 362.811 492.054 366.886 485.342L351.5 476ZM343.5 477L330.772 464.272L329.272 465.772L342 478.5L354.728 491.228L356.228 489.728L343.5 477ZM342 478.5H324V487.5H342H360V478.5H342ZM342 487.5L329.272 474.772L328.272 475.772L341 488.5L353.728 501.228L354.728 500.228L342 487.5ZM341 488.5H323V529.5H341H359V488.5H341ZM341 529.5L328.272 542.228L329.272 543.228L342 530.5L354.728 517.772L353.728 516.772L341 529.5ZM342 530.5H324V542.5H342H360V530.5H342ZM342 542.5L325.287 535.815L324.287 538.315L341 545L357.713 551.685L358.713 549.185L342 542.5ZM341 545V527H72.5V545V563H341V545ZM72.5 545L85.2279 532.272L84.2279 531.272L71.5 544L58.7721 556.728L59.7721 557.728L72.5 545ZM71.5 544V526H25V544V562H71.5V544ZM25 544H43V510.5H25H7V544H25ZM25 510.5L37.7279 497.772L36.7279 496.772L24 509.5L11.2721 522.228L12.2721 523.228L25 510.5ZM24 509.5H42V29.5H24H6V509.5H24ZM24 29.5L36.7279 42.2279L38.2279 40.7279L25.5 28L12.7721 15.2721L11.2721 16.7721L24 29.5ZM25.5 28V46H183.5V28V10H25.5V28ZM183.5 28L170.772 40.7279L171.772 41.7279L184.5 29L197.228 16.2721L196.228 15.2721L183.5 28ZM37 41L19.4286 37.0953L17.4286 46.0953L35 50L52.5714 53.9047L54.5714 44.9047L37 41ZM35 50H17V62H35H53V50H35ZM35 62L22.2721 74.7279L23.2721 75.7279L36 63L48.7279 50.2721L47.7279 49.2721L35 62ZM36 63H18V164H36H54V63H36ZM36 164L23.2721 151.272L22.2721 152.272L35 165L47.7279 177.728L48.7279 176.728L36 164ZM35 165H17V209H35H53V165H35ZM35 209L22.2721 221.728L23.2721 222.728L36 210L48.7279 197.272L47.7279 196.272L35 209ZM36 210H18V226H36H54V210H36ZM36 226L23.2721 213.272L22.2721 214.272L35 227L47.7279 239.728L48.7279 238.728L36 226ZM35 227H17V287H35H53V227H35ZM35 287L22.2721 299.728L23.2721 300.728L36 288L48.7279 275.272L47.7279 274.272L35 287ZM36 288H18V530H36H54V288H36ZM36 530L19.9003 538.05L20.9003 540.05L37 532L53.0997 523.95L52.0997 521.95L36 530ZM37 532L32.6344 549.463L36.6344 550.463L41 533L45.3656 515.537L41.3656 514.537L37 532ZM41 533V551H316V533V515H41V533ZM316 533L303.272 545.728L304.272 546.728L317 534L329.728 521.272L328.728 520.272L316 533ZM317 534L318.63 551.926L329.63 550.926L328 533L326.37 515.074L315.37 516.074L317 534ZM328 533L345.076 538.692L347.076 532.692L330 527L312.924 521.308L310.924 527.308L328 533ZM330 527H348V483H330H312V527H330ZM330 483L347.65 479.47L346.65 474.47L329 478L311.35 481.53L312.35 486.53L330 483ZM329 478L337.05 461.9L329.05 457.9L321 474L312.95 490.1L320.95 494.1L329 478ZM321 474L322.988 456.11L304.988 454.11L303 472L301.012 489.89L319.012 491.89L321 474ZM303 472L307.123 454.478L290.123 450.478L286 468L281.877 485.522L298.877 489.522L303 472ZM286 468L291.838 450.973L256.838 438.973L251 456L245.162 473.027L280.162 485.027L286 468ZM251 456L258.363 439.575C240.715 431.664 225.8 421.762 213.414 409.966L201 423L188.586 436.034C204.2 450.905 222.618 463.003 243.637 472.425L251 456ZM201 423L212.988 409.573C196.319 394.69 183.131 376.476 173.449 354.69L157 362L140.551 369.31C152.202 395.524 168.348 417.977 189.012 436.427L201 423ZM157 362L174.122 356.447L162.122 319.447L145 325L127.878 330.553L139.878 367.553L157 362ZM145 325L162.877 322.897L160.877 305.897L143 308L125.123 310.103L127.123 327.103L145 325ZM143 308L155.728 295.272L154.728 294.272L142 307L129.272 319.728L130.272 320.728L143 308ZM142 307H160V298H142H124V307H142ZM142 298L154.728 285.272L153.728 284.272L141 297L128.272 309.728L129.272 310.728L142 298ZM141 297H159V276H141H123V297H141ZM141 276L153.728 288.728L154.728 287.728L142 275L129.272 262.272L128.272 263.272L141 276ZM142 275L159.972 275.998L160.972 257.998L143 257L125.028 256.002L124.028 274.002L142 275ZM143 257L160.463 261.366L169.463 225.366L152 221L134.537 216.634L125.537 252.634L143 257ZM152 221L168.449 228.31L184.449 192.31L168 185L151.551 177.69L135.551 213.69L152 221ZM168 185L184.1 193.05C188.615 184.019 194.168 176.287 200.728 169.728L188 157L175.272 144.272C165.832 153.713 158.052 164.647 151.9 176.95L168 185ZM188 157L201.293 169.137C214.084 155.127 228.694 143.252 245.176 133.485L236 118L226.824 102.515C207.306 114.081 189.916 128.206 174.707 144.863L188 157ZM236 118L244.825 133.688C254.19 128.421 264.94 123.911 277.172 120.241L272 103L266.828 85.7591C252.394 90.0893 239.144 95.5794 227.175 102.312L236 118ZM272 103L275.708 120.614L294.708 116.614L291 99L287.292 81.3861L268.292 85.3861L272 103ZM291 99L292.197 116.96L307.197 115.96L306 98L304.803 80.0399L289.803 81.0399L291 99ZM306 98L318.728 110.728L319.728 109.728L307 97L294.272 84.2721L293.272 85.2721L306 98ZM307 97V115H342V97V79H307V97ZM342 97H324V110H342H360V97H342ZM342 110L324.35 106.47L323.35 111.47L341 115L358.65 118.53L359.65 113.53L342 110ZM341 115H323V281H341H359V115H341ZM341 281L323.245 283.959L324.245 289.959L342 287L359.755 284.041L358.755 278.041L341 281ZM342 287H324V316H342H360V287H342ZM342 316L329.272 303.272L328.272 304.272L341 317L353.728 329.728L354.728 328.728L342 316ZM341 317H323V386H341H359V317H341ZM341 386L328.272 398.728L329.272 399.728L342 387L354.728 374.272L353.728 373.272L341 386ZM342 387H324V414H342H360V387H342ZM342 414L329.272 401.272L328.272 402.272L341 415L353.728 427.728L354.728 426.728L342 414ZM341 415H323V460H341H359V415H341ZM341 460L323.924 465.692L324.924 468.692L342 463L359.076 457.308L358.076 454.308L341 460ZM342 463L336.308 480.076L342.308 482.076L348 465L353.692 447.924L347.692 445.924L342 463ZM348 465L348.899 482.978L388.899 480.978L388 463L387.101 445.022L347.101 447.022L348 465ZM388 463L391.772 480.6L419.772 474.6L416 457L412.228 439.4L384.228 445.4L388 463ZM416 457L421.692 474.076L436.692 469.076L431 452L425.308 434.924L410.308 439.924L416 457ZM431 452L437.832 468.653C465.894 457.141 490.268 441.187 510.728 420.728L498 408L485.272 395.272C468.398 412.146 448.106 425.526 424.168 435.347L431 452ZM498 408L510.957 420.494C530.503 400.225 546.306 376.452 558.431 349.351L542 342L525.569 334.649C515.027 358.214 501.497 378.442 485.043 395.506L498 408ZM542 342L559.076 347.692L570.076 314.692L553 309L535.924 303.308L524.924 336.308L542 342ZM553 309L570.71 312.22L574.71 290.22L557 287L539.29 283.78L535.29 305.78L553 309ZM557 287H575V276H557H539V287H557ZM557 276L569.728 288.728L570.728 287.728L558 275L545.272 262.272L544.272 263.272L557 276ZM558 275H576V243H558H540V275H558ZM558 243L570.728 230.272L569.728 229.272L557 242L544.272 254.728L545.272 255.728L558 243ZM557 242H575V232H557H539V242H557ZM557 232L569.728 219.272L568.728 218.272L556 231L543.272 243.728L544.272 244.728L557 232ZM556 231L573.901 229.116L571.901 210.116L554 212L536.099 213.884L538.099 232.884L556 231ZM554 212L571.366 207.264L565.366 185.264L548 190L530.634 194.736L536.634 216.736L554 212ZM548 190L564.96 183.97C553.613 152.058 537.821 124.591 517.358 101.935L504 114L490.642 126.065C507.512 144.743 521.053 167.942 531.04 196.03L548 190ZM504 114L517.269 101.837L506.269 89.837L493 102L479.731 114.163L490.731 126.163L504 114ZM493 102L504.464 88.1227L481.464 69.1227L470 83L458.536 96.8773L481.536 115.877L493 102ZM470 83L478.931 67.3716L450.931 51.3716L442 67L433.069 82.6284L461.069 98.6284L470 83ZM442 67L449.363 50.5748L420.363 37.5748L413 54L405.637 70.4252L434.637 83.4252L442 67ZM413 54L417.787 36.6481L388.787 28.6481L384 46L379.213 63.3519L408.213 71.3519L413 54ZM384 46V28H379V46V64H384V46ZM379 46L383.366 28.5374L371.366 25.5374L367 43L362.634 60.4626L374.634 63.4626L379 46ZM367 43L367.899 25.0225L347.899 24.0225L347 42L346.101 59.9775L366.101 60.9775L367 43ZM347 42L359.728 29.2721L358.728 28.2721L346 41L333.272 53.7279L334.272 54.7279L347 42ZM346 41V23H261V41V59H346V41ZM261 41L273.728 28.2721L272.728 27.2721L260 40L247.272 52.7279L248.272 53.7279L261 41ZM260 40V22H41V40V58H260V40ZM41 40L36.6344 22.5374L32.6344 23.5374L37 41L41.3656 58.4626L45.3656 57.4626L41 40ZM308 110V92H299V110V128H308V110ZM299 110L295.632 92.3179L274.632 96.3179L278 114L281.368 131.682L302.368 127.682L299 110ZM278 114L271.849 97.0837L249.849 105.084L256 122L262.151 138.916L284.151 130.916L278 114ZM256 122L247.305 106.24L218.305 122.24L227 138L235.695 153.76L264.695 137.76L256 122ZM227 138L215.755 123.944L200.755 135.944L212 150L223.245 164.056L238.245 152.056L227 138ZM212 150L198.642 137.935L170.642 168.935L184 181L197.358 193.065L225.358 162.065L212 150ZM184 181L168.295 172.205L154.295 197.205L170 206L185.705 214.795L199.705 189.795L184 181ZM170 206L152.924 200.308L141.924 233.308L159 239L176.076 244.692L187.076 211.692L170 206ZM159 239L141.29 235.78L135.29 268.78L153 272L170.71 275.22L176.71 242.22L159 239ZM153 272H135V307H153H171V272H153ZM153 307L135.35 310.53L140.35 335.53L158 332L175.65 328.47L170.65 303.47L153 307ZM158 332L140.836 337.42C149.458 364.726 162.16 388.814 179.091 409.425L193 398L206.909 386.575C193.173 369.853 182.542 349.941 175.164 326.58L158 332ZM193 398L179.172 409.523C197.789 431.864 221.472 449.149 249.807 461.501L257 445L264.193 428.499C240.528 418.184 221.544 404.136 206.828 386.477L193 398ZM257 445L250.981 461.964L281.981 472.964L288 456L294.019 439.036L263.019 428.036L257 445ZM288 456L283.634 473.463L299.634 477.463L304 460L308.366 442.537L292.366 438.537L288 456ZM304 460L300.78 477.71L311.78 479.71L315 462L318.22 444.29L307.22 442.29L304 460ZM315 462V480H329V462V444H315V462ZM329 462L346.463 466.366L347.463 462.366L330 458L312.537 453.634L311.537 457.634L329 462ZM330 458H348V175H330H312V458H330ZM330 175L342.728 162.272L341.728 161.272L329 174L316.272 186.728L317.272 187.728L330 175ZM329 174H347V115H329H311V174H329ZM329 115L346.463 110.634L345.463 106.634L328 111L310.537 115.366L311.537 119.366L329 115ZM328 111L344.1 102.95L343.1 100.95L327 109L310.9 117.05L311.9 119.05L328 111ZM327 109V91H309V109V127H327V109ZM309 109L296.272 96.2721L295.272 97.2721L308 110L320.728 122.728L321.728 121.728L309 109Z" fill="#222222" mask="url(#path-1-outside-1_13_9)"/>
</svg>
